<svg xmlns="http://www.w3.org/2000/svg" width="24.575" height="25" viewBox="0 0 24.575 25"><defs><style>.a{fill:rgba(113,113,113,0.55);}.b{fill:#717171;}</style></defs><g transform="translate(341.536 82.849)"><path class="a" d="M24.731,4.27a2.8,2.8,0,0,0-2.494-1.528H15a2.806,2.806,0,0,0-1.993.831L3.448,13.229l0,0a2.852,2.852,0,0,0-.7,1.225L.851,11.228a2.8,2.8,0,0,1,1-3.836L13.58.535A2.788,2.788,0,0,1,15.72.248l6.993,1.874A2.8,2.8,0,0,1,24.731,4.27Z" transform="translate(-342 -83)"/><path class="b" d="M14.375,2h7.238a2.8,2.8,0,0,1,2.8,2.8v7.248a2.8,2.8,0,0,1-.821,1.982L14.04,23.587a2.8,2.8,0,0,1-3.952.014l-7.24-7.147a2.8,2.8,0,0,1-.028-3.963l0,0,9.558-9.656A2.8,2.8,0,0,1,14.375,2Zm3.735,8.408a2.1,2.1,0,1,0-2.1-2.1A2.1,2.1,0,0,0,18.11,10.408Z" transform="translate(-341.378 -82.258)"/></g></svg>